<svg xmlns="http://www.w3.org/2000/svg" viewBox="0 0 81.55 81.55"><title>Asset 3</title><g id="Layer_2" data-name="Layer 2"><g id="Layer_1-2" data-name="Layer 1"><path d="M40.77,0A40.77,40.77,0,1,0,81.55,40.77,40.77,40.77,0,0,0,40.77,0Zm0,74.13A33.36,33.36,0,1,1,74.13,40.77,33.36,33.36,0,0,1,40.77,74.13Z" style="fill:#fff"/><path d="M44.48,39.24V18.53a3.71,3.71,0,1,0-7.41,0V40.8a3.63,3.63,0,0,0,.07.7c0,.11.06.22.1.33a3.7,3.7,0,0,0,.11.37,3.81,3.81,0,0,0,.19.37c.05.09.09.19.15.27a3.61,3.61,0,0,0,.46.57L48.64,53.88a3.71,3.71,0,1,0,5.24-5.24Z" style="fill:#fff"/></g></g></svg>