<svg xmlns="http://www.w3.org/2000/svg" viewBox="0 0 195.76 368.78"><title>Asset 1</title><g id="Layer_2" data-name="Layer 2"><g id="Layer_2-2" data-name="Layer 2"><path d="M120.76,0h75V65c-10.8-.11-21.6-.29-32.39-.31-10.41,0-17.51,5.51-22.9,13.89-6.24,9.71-3.56,20.52-3.83,30.94,0,.9,2.13,2.66,3.28,2.67,18.61.07,37.23-.09,55.84-.19v64H136.61c-.39,32.12-.13,64-.18,95.89,0,32.09,0,64.19,0,96.77H130.9c-23.82,0-47.65-.14-71.47.12-5.06.05-6.47-1.34-6.45-6.43q.26-90,.11-179.93v-6.76H47c-13.83,0-27.66-.12-41.48.07-4,.06-5.56-1-5.51-5.31.21-17.66.19-35.32,0-53,0-3.9,1.08-5.26,5.1-5.21,14.16.21,28.32.09,42.48.07,1.75,0,3.5-.16,5.49-.26,0-11.95.11-23.27,0-34.58-.17-14.68,3.2-28.41,11-40.87C74.47,19.81,89.25,8.6,108.4,3.31,112.51,2.18,116.64,1.1,120.76,0Z" style="fill:#fff"/></g></g></svg>