<svg xmlns="http://www.w3.org/2000/svg" viewBox="0 0 267.35 218.05"><title>Asset 1</title><g id="Layer_2" data-name="Layer 2"><g id="Layer_2-2" data-name="Layer 2"><path d="M180.49,0h8.92c2.48.45,5,.82,7.44,1.37a55,55,0,0,1,26.81,14.56A3.69,3.69,0,0,0,226.51,17c6.45-1.84,12.93-3.65,19.22-6,4.76-1.76,9.26-4.25,14.22-6.58-4.24,12.64-12,22.12-22.62,29.55,10.33-1,20.05-3.9,30-8.07-.75,1.13-1.12,1.71-1.51,2.27A107.27,107.27,0,0,1,242,52.74a4.29,4.29,0,0,0-2,3.63c-.46,9.58-.47,19.26-1.9,28.72-4.71,31.09-17.43,58.77-38.48,82.1-37.39,41.45-84.72,56-139.25,49.27C42.13,214.2,25,208,8.75,199.21c-3-1.61-5.84-3.43-8.75-5.15A125.35,125.35,0,0,0,42.29,190a108.87,108.87,0,0,0,38-19.27C49.66,169.2,33,147,29.46,132.51a56.82,56.82,0,0,0,24.11-1.1c-13.21-3.14-23.7-9.53-31.75-19.67A53.68,53.68,0,0,1,9.87,76.82c7.8,3.94,15.46,6.44,24.22,6.63-29.64-21.66-27-57.07-16.26-73C47.57,45.36,85.18,64.59,131,67.72c-.36-3.67-.79-6.87-1-10.08-1.41-23.5,13.29-46,35.52-53.93C170.35,2,175.5,1.21,180.49,0Z" style="fill:#fff"/></g></g></svg>