<?xml version="1.0" encoding="utf-8"?>
<!-- Generator: Adobe Illustrator 21.0.2, SVG Export Plug-In . SVG Version: 6.00 Build 0)  -->
<svg version="1.1" id="Layer_1" xmlns="http://www.w3.org/2000/svg" xmlns:xlink="http://www.w3.org/1999/xlink" x="0px" y="0px"
	 width="25px" height="25px" viewBox="0 0 81.6 81.6" style="enable-background:new 0 0 81.6 81.6;" xml:space="preserve">
<title>Asset 2</title>
<g id="Layer_2">
	<g id="Layer_1-2">
		<path d="M40.8,0C18.3,0,0,18.3,0,40.8s18.3,40.8,40.8,40.8c22.5,0,40.8-18.3,40.8-40.8C81.6,18.3,63.3,0,40.8,0
			C40.8,0,40.8,0,40.8,0z M40.8,74.1c-18.4,0-33.4-14.9-33.4-33.4c0-18.4,14.9-33.4,33.4-33.4c18.4,0,33.4,14.9,33.4,33.4
			c0,0,0,0,0,0C74.1,59.2,59.2,74.1,40.8,74.1z"/>
		<path d="M44.5,39.2V18.5c0.1-2-1.5-3.8-3.5-3.9c-2-0.1-3.8,1.5-3.9,3.5c0,0.1,0,0.3,0,0.4v22.3c0,0.2,0,0.5,0.1,0.7
			c0,0.1,0.1,0.2,0.1,0.3c0,0.1,0.1,0.2,0.1,0.4c0.1,0.1,0.1,0.3,0.2,0.4c0,0.1,0.1,0.2,0.2,0.3c0.1,0.2,0.3,0.4,0.5,0.6l10.5,10.5
			c1.4,1.5,3.7,1.6,5.2,0.3c1.5-1.4,1.6-3.7,0.3-5.2c-0.1-0.1-0.2-0.2-0.3-0.3L44.5,39.2z"/>
	</g>
</g>
</svg>
