<svg xmlns="http://www.w3.org/2000/svg" viewBox="0 0 224.23 224.23"><title>Asset 1</title><g id="Layer_2" data-name="Layer 2"><g id="Layer_2-2" data-name="Layer 2"><path d="M0,164.35Q0,112.11,0,59.88c.22-.9.49-1.79.64-2.7C5,31.13,19.54,13.26,44.22,3.9,49.22,2,54.65,1.27,59.88,0H164.35a19.62,19.62,0,0,0,2.13.58c26.49,4.24,44.57,18.9,54,44,1.83,4.89,2.55,10.19,3.78,15.3V164.35c-.22.9-.49,1.79-.64,2.7-4.44,26.17-19,44.08-43.88,53.38-4.9,1.84-10.23,2.56-15.36,3.8H59.88a19.63,19.63,0,0,0-2.13-.58c-26.49-4.24-44.57-18.9-54-44C1.95,174.76,1.23,169.46,0,164.35Zm20.38-52.57c0,15-.06,29.93,0,44.89a53.25,53.25,0,0,0,1,11.05c4.8,21.68,22.73,36,45.12,36.1q45.53.13,91.06,0a47.36,47.36,0,0,0,10.1-1c21.67-4.82,36-22.74,36.09-45.13q.13-45.53,0-91.06a47.37,47.37,0,0,0-1-10.1C198,34.83,180,20.47,157.66,20.41q-45.53-.13-91.06,0a47.37,47.37,0,0,0-10.1,1C34.95,26.24,20.57,44.09,20.41,66.25,20.3,81.43,20.39,96.61,20.38,111.78Z" style="fill:#fff"/><path d="M112.11,173.26A61.41,61.41,0,0,1,51,112C51,78.42,78.72,50.84,112.28,51a61.14,61.14,0,0,1-.17,122.29Zm0-101.9a40.76,40.76,0,1,0,40.73,40.95A40.69,40.69,0,0,0,112.14,71.36Z" style="fill:#fff"/><path d="M172.45,61.13a9.22,9.22,0,1,1,9.08-9.2A9.26,9.26,0,0,1,172.45,61.13Z" style="fill:#fff"/></g></g></svg>