<svg xmlns="http://www.w3.org/2000/svg" viewBox="0 0 82.22 63.33"><title>Asset 5</title><g id="Layer_2" data-name="Layer 2"><g id="Layer_1-2" data-name="Layer 1"><path d="M41.25,33.95c-8.12,0-14.65-10-14.65-18.19a14.66,14.66,0,1,1,29.31,0C55.91,24,49.37,33.95,41.25,33.95Zm0-27.11a8.92,8.92,0,0,0-8.91,8.91c0,5.32,4.41,12.45,8.91,12.45s8.91-7.13,8.91-12.45A8.93,8.93,0,0,0,41.25,6.84Z" style="fill:#fff"/><path d="M53.88,24.17A21.27,21.27,0,0,1,50.76,29c4.87,3.84,7.91,10.55,7.64,18.11a32.19,32.19,0,0,1-1.28,7.55,2.49,2.49,0,0,1-2,1.8l-.72.11a84.7,84.7,0,0,1-26.27,0l-.73-.11a2.52,2.52,0,0,1-2-1.83,30.76,30.76,0,0,1-1.28-8.41,22.22,22.22,0,0,1,7.1-16.67c.2-.17.4-.32.61-.48a21.23,21.23,0,0,1-3.14-4.82c-.42.32-.84.63-1.24,1a27.65,27.65,0,0,0-9.07,21,36.2,36.2,0,0,0,1.49,9.94,8.26,8.26,0,0,0,6.66,6l.73.12a90.79,90.79,0,0,0,14,1.09,90.64,90.64,0,0,0,14-1.09l.72-.11a8.25,8.25,0,0,0,6.66-5.94,37.82,37.82,0,0,0,1.48-8.88C64.48,37.65,60.41,29.06,53.88,24.17Z" style="fill:#fff"/><path d="M34.22,27.45a18.57,18.57,0,0,1-3.13-4.84,22.31,22.31,0,0,0-2.43,1.63,21.23,21.23,0,0,0,3.14,4.82A16.47,16.47,0,0,1,34.22,27.45Z" style="fill:#fff"/><path d="M48.33,27.41A16.22,16.22,0,0,1,50.76,29a21.27,21.27,0,0,0,3.12-4.83,22,22,0,0,0-2.45-1.58A18.61,18.61,0,0,1,48.33,27.41Z" style="fill:#fff"/><path d="M32.34,15.75a8.91,8.91,0,1,1,17.83,0,14.2,14.2,0,0,1-1.32,5.59,21.13,21.13,0,0,1,2.58,1.24A17.18,17.18,0,0,0,53,15.76a11.78,11.78,0,0,0-23.57,0,17.2,17.2,0,0,0,1.62,6.86,21.14,21.14,0,0,1,2.59-1.23A14.22,14.22,0,0,1,32.34,15.75Z" style="fill:#fff"/><path d="M41.25,31.08c2.66,0,5.1-1.48,7.07-3.66a15.3,15.3,0,0,0-2.87-1.16,6.4,6.4,0,0,1-4.21,2,6.39,6.39,0,0,1-4.19-1.94,15.26,15.26,0,0,0-2.84,1.19C36.18,29.61,38.61,31.08,41.25,31.08Z" style="fill:#fff"/><path d="M45.46,26.25a15.3,15.3,0,0,1,2.87,1.16,18.61,18.61,0,0,0,3.11-4.83,21.13,21.13,0,0,0-2.58-1.24A15.14,15.14,0,0,1,45.46,26.25Z" style="fill:#fff"/><path d="M33.67,21.38a21.14,21.14,0,0,0-2.59,1.23,18.57,18.57,0,0,0,3.13,4.84,15.26,15.26,0,0,1,2.84-1.19A15.12,15.12,0,0,1,33.67,21.38Z" style="fill:#fff"/><path d="M2.87,51.47A2.87,2.87,0,0,1,0,48.6c0-10.26,2.33-18,6.74-22.27a14.33,14.33,0,0,1,10.79-4.06,2.87,2.87,0,0,1,2.8,2.94A2.82,2.82,0,0,1,17.4,28a8.63,8.63,0,0,0-6.64,2.42c-3.23,3.16-5,9.61-5,18.16A2.87,2.87,0,0,1,2.87,51.47Z" style="fill:#fff"/><path d="M79.35,51.47a2.87,2.87,0,0,1-2.87-2.87c0-8.55-1.78-15-5-18.16A8.56,8.56,0,0,0,64.82,28h-.07a2.87,2.87,0,0,1-.07-5.74,14.48,14.48,0,0,1,10.79,4.06c4.41,4.31,6.74,12,6.74,22.27A2.87,2.87,0,0,1,79.35,51.47Z" style="fill:#fff"/><path d="M19.16,5.74a8.34,8.34,0,0,1,5.32,1.92,2.85,2.85,0,0,0,1.65.65,16.79,16.79,0,0,1,2.76-4.1,2.85,2.85,0,0,0-.75-1A14.07,14.07,0,1,0,16.1,27.79a2.87,2.87,0,1,0,1.25-5.6A8.33,8.33,0,0,1,19.16,5.74Z" style="fill:#fff"/><path d="M63.06,0a14.09,14.09,0,0,0-9,3.25,2.85,2.85,0,0,0-.64.77,16.82,16.82,0,0,1,2.93,4.26,2.84,2.84,0,0,0,1.38-.62,8.33,8.33,0,1,1,7.14,14.53,2.87,2.87,0,1,0,1.25,5.6A14.07,14.07,0,0,0,63.06,0Z" style="fill:#fff"/></g></g></svg>